<?xml version="1.0" standalone="no"?>
<!DOCTYPE svg PUBLIC "-//W3C//DTD SVG 20010904//EN"
 "http://www.w3.org/TR/2001/REC-SVG-20010904/DTD/svg10.dtd">
<svg version="1.0" xmlns="http://www.w3.org/2000/svg"
 width="240.000000pt" height="240.000000pt" viewBox="0 0 240.000000 240.000000"
 preserveAspectRatio="xMidYMid meet">
<metadata>
Created by potrace 1.15, written by Peter Selinger 2001-2017
</metadata>
<g transform="translate(0.000000,240.000000) scale(0.100000,-0.100000)"
fill="#000000" stroke="none">
<path d="M1025 2326 c-44 -19 -102 -88 -115 -136 -23 -84 21 -180 100 -220
143 -72 300 17 300 170 0 85 -58 169 -131 190 -47 14 -118 12 -154 -4z"/>
<path d="M216 2222 c-6 -10 -31 -245 -41 -393 -12 -160 -4 -165 272 -179 242
-12 300 -7 353 31 22 16 42 40 46 54 14 57 -82 179 -163 206 -21 7 -73 10
-128 7 -81 -3 -101 -8 -159 -38 -43 -21 -70 -30 -76 -24 -6 6 -26 82 -45 169
-34 153 -46 188 -59 167z"/>
<path d="M1464 1841 c-25 -11 -64 -58 -64 -78 0 -33 33 -75 73 -94 70 -31 179
-24 542 36 358 59 406 77 258 95 -243 30 -772 57 -809 41z"/>
<path d="M1247 1088 c-21 -17 -47 -80 -47 -117 0 -48 46 -192 147 -461 121
-320 168 -433 182 -438 16 -5 15 -5 -29 318 -44 319 -59 397 -95 513 -54 170
-102 226 -158 185z"/>
<path d="M928 1073 c-34 -39 -81 -166 -112 -303 -29 -131 -110 -700 -100 -709
2 -3 8 0 14 5 9 9 188 460 249 625 73 199 86 311 44 368 -25 32 -72 40 -95 14z"/>
</g>
</svg>
